<mxfile host="65bd71144e">
    <diagram id="DaRivlXsyjmGOMbcxH0y" name="Page-1">
        <mxGraphModel dx="550" dy="1283" grid="1" gridSize="10" guides="1" tooltips="1" connect="1" arrows="1" fold="1" page="1" pageScale="1" pageWidth="850" pageHeight="1100" math="0" shadow="0">
            <root>
                <mxCell id="0"/>
                <mxCell id="1" parent="0"/>
                <mxCell id="10" value="0" style="rounded=0;whiteSpace=wrap;html=1;fillColor=#6a00ff;strokeColor=#3700CC;fontColor=#ffffff;shadow=1;fontSize=21;" vertex="1" parent="1">
                    <mxGeometry x="190" y="107.5" width="40" height="60" as="geometry"/>
                </mxCell>
                <mxCell id="11" value="1" style="rounded=0;whiteSpace=wrap;html=1;fillColor=#6a00ff;strokeColor=#3700CC;fontColor=#ffffff;shadow=1;fontSize=21;" vertex="1" parent="1">
                    <mxGeometry x="230" y="107.5" width="40" height="60" as="geometry"/>
                </mxCell>
                <mxCell id="12" value="2" style="rounded=0;whiteSpace=wrap;html=1;fillColor=#6a00ff;strokeColor=#3700CC;fontColor=#ffffff;shadow=1;fontSize=21;" vertex="1" parent="1">
                    <mxGeometry x="270" y="107.5" width="40" height="60" as="geometry"/>
                </mxCell>
                <mxCell id="13" value="3" style="rounded=0;whiteSpace=wrap;html=1;fillColor=#6a00ff;strokeColor=#3700CC;fontColor=#ffffff;shadow=1;fontSize=21;" vertex="1" parent="1">
                    <mxGeometry x="310" y="107.5" width="40" height="60" as="geometry"/>
                </mxCell>
                <mxCell id="14" value="7" style="rounded=0;whiteSpace=wrap;html=1;fillColor=#6a00ff;strokeColor=#3700CC;fontColor=#ffffff;shadow=1;fontSize=21;" vertex="1" parent="1">
                    <mxGeometry x="390" y="107.5" width="40" height="60" as="geometry"/>
                </mxCell>
                <mxCell id="15" value="6" style="rounded=0;whiteSpace=wrap;html=1;fillColor=#6a00ff;strokeColor=#3700CC;fontColor=#ffffff;shadow=1;fontSize=21;" vertex="1" parent="1">
                    <mxGeometry x="430" y="107.5" width="40" height="60" as="geometry"/>
                </mxCell>
                <mxCell id="16" value="5" style="rounded=0;whiteSpace=wrap;html=1;fillColor=#6a00ff;strokeColor=#3700CC;fontColor=#ffffff;shadow=1;fontSize=21;" vertex="1" parent="1">
                    <mxGeometry x="470" y="107.5" width="40" height="60" as="geometry"/>
                </mxCell>
                <mxCell id="17" value="4" style="rounded=0;whiteSpace=wrap;html=1;fillColor=#6a00ff;strokeColor=#3700CC;fontColor=#ffffff;shadow=1;fontSize=21;" vertex="1" parent="1">
                    <mxGeometry x="510" y="107.5" width="40" height="60" as="geometry"/>
                </mxCell>
                <mxCell id="19" value="1" style="rounded=0;whiteSpace=wrap;html=1;fillColor=#6a00ff;strokeColor=#3700CC;fontColor=#ffffff;shadow=1;fontSize=21;" vertex="1" parent="1">
                    <mxGeometry x="230" y="187.5" width="40" height="60" as="geometry"/>
                </mxCell>
                <mxCell id="20" value="2" style="rounded=0;whiteSpace=wrap;html=1;fillColor=#6a00ff;strokeColor=#3700CC;fontColor=#ffffff;shadow=1;fontSize=21;" vertex="1" parent="1">
                    <mxGeometry x="270" y="187.5" width="40" height="60" as="geometry"/>
                </mxCell>
                <mxCell id="21" value="3" style="rounded=0;whiteSpace=wrap;html=1;fillColor=#6a00ff;strokeColor=#3700CC;fontColor=#ffffff;shadow=1;fontSize=21;" vertex="1" parent="1">
                    <mxGeometry x="310" y="187.5" width="40" height="60" as="geometry"/>
                </mxCell>
                <mxCell id="22" value="7" style="rounded=0;whiteSpace=wrap;html=1;fillColor=#6a00ff;strokeColor=#3700CC;fontColor=#ffffff;shadow=1;fontSize=21;" vertex="1" parent="1">
                    <mxGeometry x="390" y="187.5" width="40" height="60" as="geometry"/>
                </mxCell>
                <mxCell id="23" value="6" style="rounded=0;whiteSpace=wrap;html=1;fillColor=#6a00ff;strokeColor=#3700CC;fontColor=#ffffff;shadow=1;fontSize=21;" vertex="1" parent="1">
                    <mxGeometry x="430" y="187.5" width="40" height="60" as="geometry"/>
                </mxCell>
                <mxCell id="24" value="5" style="rounded=0;whiteSpace=wrap;html=1;fillColor=#6a00ff;strokeColor=#3700CC;fontColor=#ffffff;shadow=1;fontSize=21;" vertex="1" parent="1">
                    <mxGeometry x="470" y="187.5" width="40" height="60" as="geometry"/>
                </mxCell>
                <mxCell id="25" value="4" style="rounded=0;whiteSpace=wrap;html=1;fillColor=#6a00ff;strokeColor=#3700CC;fontColor=#ffffff;shadow=1;fontSize=21;" vertex="1" parent="1">
                    <mxGeometry x="510" y="187.5" width="40" height="60" as="geometry"/>
                </mxCell>
                <mxCell id="28" value="2" style="rounded=0;whiteSpace=wrap;html=1;fillColor=#6a00ff;strokeColor=#3700CC;fontColor=#ffffff;shadow=1;fontSize=21;" vertex="1" parent="1">
                    <mxGeometry x="270" y="267.5" width="40" height="60" as="geometry"/>
                </mxCell>
                <mxCell id="29" value="3" style="rounded=0;whiteSpace=wrap;html=1;fillColor=#6a00ff;strokeColor=#3700CC;fontColor=#ffffff;shadow=1;fontSize=21;" vertex="1" parent="1">
                    <mxGeometry x="310" y="267.5" width="40" height="60" as="geometry"/>
                </mxCell>
                <mxCell id="30" value="7" style="rounded=0;whiteSpace=wrap;html=1;fillColor=#6a00ff;strokeColor=#3700CC;fontColor=#ffffff;shadow=1;fontSize=21;" vertex="1" parent="1">
                    <mxGeometry x="390" y="267.5" width="40" height="60" as="geometry"/>
                </mxCell>
                <mxCell id="31" value="6" style="rounded=0;whiteSpace=wrap;html=1;fillColor=#6a00ff;strokeColor=#3700CC;fontColor=#ffffff;shadow=1;fontSize=21;" vertex="1" parent="1">
                    <mxGeometry x="430" y="267.5" width="40" height="60" as="geometry"/>
                </mxCell>
                <mxCell id="32" value="5" style="rounded=0;whiteSpace=wrap;html=1;fillColor=#6a00ff;strokeColor=#3700CC;fontColor=#ffffff;shadow=1;fontSize=21;" vertex="1" parent="1">
                    <mxGeometry x="470" y="267.5" width="40" height="60" as="geometry"/>
                </mxCell>
                <mxCell id="33" value="4" style="rounded=0;whiteSpace=wrap;html=1;fillColor=#6a00ff;strokeColor=#3700CC;fontColor=#ffffff;shadow=1;fontSize=21;" vertex="1" parent="1">
                    <mxGeometry x="510" y="267.5" width="40" height="60" as="geometry"/>
                </mxCell>
                <mxCell id="35" value="3" style="rounded=0;whiteSpace=wrap;html=1;fillColor=#6a00ff;strokeColor=#3700CC;fontColor=#ffffff;shadow=1;fontSize=21;" vertex="1" parent="1">
                    <mxGeometry x="310" y="347.5" width="40" height="60" as="geometry"/>
                </mxCell>
                <mxCell id="36" value="7" style="rounded=0;whiteSpace=wrap;html=1;fillColor=#6a00ff;strokeColor=#3700CC;fontColor=#ffffff;shadow=1;fontSize=21;" vertex="1" parent="1">
                    <mxGeometry x="390" y="347.5" width="40" height="60" as="geometry"/>
                </mxCell>
                <mxCell id="37" value="6" style="rounded=0;whiteSpace=wrap;html=1;fillColor=#6a00ff;strokeColor=#3700CC;fontColor=#ffffff;shadow=1;fontSize=21;" vertex="1" parent="1">
                    <mxGeometry x="430" y="347.5" width="40" height="60" as="geometry"/>
                </mxCell>
                <mxCell id="38" value="5" style="rounded=0;whiteSpace=wrap;html=1;fillColor=#6a00ff;strokeColor=#3700CC;fontColor=#ffffff;shadow=1;fontSize=21;" vertex="1" parent="1">
                    <mxGeometry x="470" y="347.5" width="40" height="60" as="geometry"/>
                </mxCell>
                <mxCell id="39" value="4" style="rounded=0;whiteSpace=wrap;html=1;fillColor=#6a00ff;strokeColor=#3700CC;fontColor=#ffffff;shadow=1;fontSize=21;" vertex="1" parent="1">
                    <mxGeometry x="510" y="347.5" width="40" height="60" as="geometry"/>
                </mxCell>
                <mxCell id="40" value="4" style="rounded=0;whiteSpace=wrap;html=1;fillColor=#6a00ff;strokeColor=#3700CC;fontColor=#ffffff;shadow=1;fontSize=21;" vertex="1" parent="1">
                    <mxGeometry x="270" y="427.5" width="40" height="60" as="geometry"/>
                </mxCell>
                <mxCell id="41" value="5" style="rounded=0;whiteSpace=wrap;html=1;fillColor=#6a00ff;strokeColor=#3700CC;fontColor=#ffffff;shadow=1;fontSize=21;" vertex="1" parent="1">
                    <mxGeometry x="310" y="427.5" width="40" height="60" as="geometry"/>
                </mxCell>
                <mxCell id="42" value="7" style="rounded=0;whiteSpace=wrap;html=1;fillColor=#6a00ff;strokeColor=#3700CC;fontColor=#ffffff;shadow=1;fontSize=21;" vertex="1" parent="1">
                    <mxGeometry x="390" y="427.5" width="40" height="60" as="geometry"/>
                </mxCell>
                <mxCell id="43" value="6" style="rounded=0;whiteSpace=wrap;html=1;fillColor=#6a00ff;strokeColor=#3700CC;fontColor=#ffffff;shadow=1;fontSize=21;" vertex="1" parent="1">
                    <mxGeometry x="430" y="427.5" width="40" height="60" as="geometry"/>
                </mxCell>
                <mxCell id="45" value="O(1)" style="text;html=1;strokeColor=none;fillColor=none;align=center;verticalAlign=middle;whiteSpace=wrap;rounded=0;fontSize=24;" vertex="1" parent="1">
                    <mxGeometry x="110" y="167.5" width="60" height="40" as="geometry"/>
                </mxCell>
                <mxCell id="47" value="O(1)" style="text;html=1;strokeColor=none;fillColor=none;align=center;verticalAlign=middle;whiteSpace=wrap;rounded=0;fontSize=24;" vertex="1" parent="1">
                    <mxGeometry x="110" y="247.5" width="60" height="40" as="geometry"/>
                </mxCell>
                <mxCell id="48" value="O(1)" style="text;html=1;strokeColor=none;fillColor=none;align=center;verticalAlign=middle;whiteSpace=wrap;rounded=0;fontSize=24;" vertex="1" parent="1">
                    <mxGeometry x="110" y="327.5" width="60" height="40" as="geometry"/>
                </mxCell>
                <mxCell id="49" value="O(n)" style="text;html=1;strokeColor=none;fillColor=none;align=center;verticalAlign=middle;whiteSpace=wrap;rounded=0;fontSize=24;" vertex="1" parent="1">
                    <mxGeometry x="110" y="407.5" width="60" height="40" as="geometry"/>
                </mxCell>
                <mxCell id="51" value="&lt;font style=&quot;font-size: 34px&quot;&gt;...&lt;/font&gt;" style="text;html=1;strokeColor=none;fillColor=none;align=center;verticalAlign=middle;whiteSpace=wrap;rounded=0;fontSize=24;" vertex="1" parent="1">
                    <mxGeometry x="150" y="467.5" width="60" height="30" as="geometry"/>
                </mxCell>
                <mxCell id="52" value="" style="endArrow=open;html=1;fontSize=21;endFill=0;endSize=16;exitX=0.5;exitY=1;exitDx=0;exitDy=0;" edge="1" parent="1">
                    <mxGeometry width="50" height="50" relative="1" as="geometry">
                        <mxPoint x="180" y="97.5" as="sourcePoint"/>
                        <mxPoint x="180" y="477.5" as="targetPoint"/>
                    </mxGeometry>
                </mxCell>
                <mxCell id="53" value="" style="shape=curlyBracket;whiteSpace=wrap;html=1;rounded=1;flipH=1;shadow=1;fontSize=21;rotation=-90;" vertex="1" parent="1">
                    <mxGeometry x="357.5" y="-100" width="30" height="350" as="geometry"/>
                </mxCell>
                <mxCell id="54" value="n" style="text;html=1;strokeColor=none;fillColor=none;align=center;verticalAlign=middle;whiteSpace=wrap;rounded=0;fontSize=24;" vertex="1" parent="1">
                    <mxGeometry x="342.5" y="7.5" width="60" height="40" as="geometry"/>
                </mxCell>
                <mxCell id="55" value="" style="shape=curlyBracket;whiteSpace=wrap;html=1;rounded=1;shadow=1;fontSize=21;" vertex="1" parent="1">
                    <mxGeometry x="90" y="177.5" width="20" height="190" as="geometry"/>
                </mxCell>
                <mxCell id="56" value="O(n) times" style="text;html=1;strokeColor=none;fillColor=none;align=center;verticalAlign=middle;whiteSpace=wrap;rounded=0;fontSize=24;" vertex="1" parent="1">
                    <mxGeometry x="10" y="252.5" width="60" height="40" as="geometry"/>
                </mxCell>
            </root>
        </mxGraphModel>
    </diagram>
</mxfile>